<?xml version="1.0" encoding="UTF-8" standalone="no"?>
<!DOCTYPE svg PUBLIC "-//W3C//DTD SVG 1.1//EN"
 "http://www.w3.org/Graphics/SVG/1.1/DTD/svg11.dtd">
<!-- Generated by graphviz version 2.47.0 (20210316.0004)
 -->
<!-- Title: dependencies Pages: 1 -->
<svg width="1023pt" height="284pt"
 viewBox="0.00 0.00 1023.00 284.00" xmlns="http://www.w3.org/2000/svg" xmlns:xlink="http://www.w3.org/1999/xlink">
<g id="graph0" class="graph" transform="scale(1 1) rotate(0) translate(4 280)">
<title>dependencies</title>
<polygon fill="white" stroke="transparent" points="-4,4 -4,-280 1019,-280 1019,4 -4,4"/>
<text text-anchor="start" x="486.51" y="-42.4" font-family="Times-12" font-weight="bold" font-size="14.00">Legend</text>
<polygon fill="#ffffb3" stroke="transparent" points="273.5,-10 273.5,-30 293.5,-30 293.5,-10 273.5,-10"/>
<text text-anchor="start" x="297.13" y="-15.4" font-family="Times-12" font-size="14.00"> &#160;Declarations</text>
<polygon fill="#8dd3c7" stroke="transparent" points="386.5,-10 386.5,-30 406.5,-30 406.5,-10 386.5,-10"/>
<text text-anchor="start" x="410.23" y="-15.4" font-family="Times-12" font-size="14.00"> &#160;Module</text>
<polygon fill="#80b1d3" stroke="transparent" points="472.5,-10 472.5,-30 492.5,-30 492.5,-10 472.5,-10"/>
<text text-anchor="start" x="496.28" y="-15.4" font-family="Times-12" font-size="14.00"> &#160;Bootstrap</text>
<polygon fill="#fdb462" stroke="transparent" points="569.5,-10 569.5,-30 589.5,-30 589.5,-10 569.5,-10"/>
<text text-anchor="start" x="593.17" y="-15.4" font-family="Times-12" font-size="14.00"> &#160;Providers</text>
<polygon fill="#fb8072" stroke="transparent" points="665.5,-10 665.5,-30 685.5,-30 685.5,-10 665.5,-10"/>
<text text-anchor="start" x="689.23" y="-15.4" font-family="Times-12" font-size="14.00"> &#160;Exports</text>
<g id="clust1" class="cluster">
<title>cluster_DomainModule</title>
<polygon fill="none" stroke="black" stroke-dasharray="1,5" points="8,-70 8,-268 182,-268 182,-70 8,-70"/>
</g>
<g id="clust4" class="cluster">
<title>cluster_DomainModule_exports</title>
<polygon fill="none" stroke="black" points="34,-208 34,-260 156,-260 156,-208 34,-208"/>
</g>
<g id="clust6" class="cluster">
<title>cluster_DomainModule_providers</title>
<polygon fill="none" stroke="black" points="16,-78 16,-130 174,-130 174,-78 16,-78"/>
</g>
<g id="clust7" class="cluster">
<title>cluster_TemplatePlaygroundModule</title>
<polygon fill="none" stroke="black" stroke-dasharray="1,5" points="190,-70 190,-268 1007,-268 1007,-70 190,-70"/>
</g>
<g id="clust8" class="cluster">
<title>cluster_TemplatePlaygroundModule_declarations</title>
<polygon fill="none" stroke="black" points="785,-78 785,-130 999,-130 999,-78 785,-78"/>
</g>
<g id="clust12" class="cluster">
<title>cluster_TemplatePlaygroundModule_bootstrap</title>
<polygon fill="none" stroke="black" points="476,-208 476,-260 694,-260 694,-208 476,-208"/>
</g>
<g id="clust13" class="cluster">
<title>cluster_TemplatePlaygroundModule_providers</title>
<polygon fill="none" stroke="black" points="198,-78 198,-130 777,-130 777,-78 198,-78"/>
</g>
<!-- DomainService  -->
<g id="node1" class="node">
<title>DomainService </title>
<polygon fill="#fb8072" stroke="black" points="148.08,-252 41.92,-252 41.92,-216 148.08,-216 148.08,-252"/>
<text text-anchor="middle" x="95" y="-229.8" font-family="Times,serif" font-size="14.00">DomainService </text>
</g>
<!-- DomainModule -->
<g id="node2" class="node">
<title>DomainModule</title>
<polygon fill="#8dd3c7" stroke="black" points="147.15,-187 144.15,-191 123.15,-191 120.15,-187 42.85,-187 42.85,-151 147.15,-151 147.15,-187"/>
<text text-anchor="middle" x="95" y="-164.8" font-family="Times,serif" font-size="14.00">DomainModule</text>
</g>
<!-- DomainModule&#45;&gt;DomainService  -->
<g id="edge1" class="edge">
<title>DomainModule&#45;&gt;DomainService </title>
<path fill="none" stroke="black" stroke-dasharray="5,2" d="M95,-187.11C95,-187.11 95,-205.99 95,-205.99"/>
<polygon fill="black" stroke="black" points="91.5,-205.99 95,-215.99 98.5,-205.99 91.5,-205.99"/>
</g>
<!-- DomainService -->
<g id="node3" class="node">
<title>DomainService</title>
<ellipse fill="#fdb462" stroke="black" cx="95" cy="-104" rx="71.21" ry="18"/>
<text text-anchor="middle" x="95" y="-99.8" font-family="Times,serif" font-size="14.00">DomainService</text>
</g>
<!-- DomainService&#45;&gt;DomainModule -->
<g id="edge2" class="edge">
<title>DomainService&#45;&gt;DomainModule</title>
<path fill="none" stroke="black" d="M95,-122.11C95,-122.11 95,-140.99 95,-140.99"/>
<polygon fill="black" stroke="black" points="91.5,-140.99 95,-150.99 98.5,-140.99 91.5,-140.99"/>
</g>
<!-- TemplatePlaygroundComponent -->
<g id="node4" class="node">
<title>TemplatePlaygroundComponent</title>
<polygon fill="#ffffb3" stroke="black" points="991.25,-122 792.75,-122 792.75,-86 991.25,-86 991.25,-122"/>
<text text-anchor="middle" x="892" y="-99.8" font-family="Times,serif" font-size="14.00">TemplatePlaygroundComponent</text>
</g>
<!-- TemplatePlaygroundModule -->
<g id="node5" class="node">
<title>TemplatePlaygroundModule</title>
<polygon fill="#8dd3c7" stroke="black" points="673.47,-187 670.47,-191 649.47,-191 646.47,-187 496.53,-187 496.53,-151 673.47,-151 673.47,-187"/>
<text text-anchor="middle" x="585" y="-164.8" font-family="Times,serif" font-size="14.00">TemplatePlaygroundModule</text>
</g>
<!-- TemplatePlaygroundComponent&#45;&gt;TemplatePlaygroundModule -->
<g id="edge3" class="edge">
<title>TemplatePlaygroundComponent&#45;&gt;TemplatePlaygroundModule</title>
<path fill="none" stroke="black" d="M892,-122.11C892,-141.34 892,-169 892,-169 892,-169 683.8,-169 683.8,-169"/>
<polygon fill="black" stroke="black" points="683.8,-165.5 673.8,-169 683.8,-172.5 683.8,-165.5"/>
</g>
<!-- TemplatePlaygroundComponent  -->
<g id="node6" class="node">
<title>TemplatePlaygroundComponent </title>
<polygon fill="#80b1d3" stroke="black" points="686.25,-252 483.75,-252 483.75,-216 686.25,-216 686.25,-252"/>
<text text-anchor="middle" x="585" y="-229.8" font-family="Times,serif" font-size="14.00">TemplatePlaygroundComponent </text>
</g>
<!-- TemplatePlaygroundModule&#45;&gt;TemplatePlaygroundComponent  -->
<g id="edge4" class="edge">
<title>TemplatePlaygroundModule&#45;&gt;TemplatePlaygroundComponent </title>
<path fill="none" stroke="black" stroke-dasharray="1,5" d="M585,-187.11C585,-187.11 585,-205.99 585,-205.99"/>
<polygon fill="black" stroke="black" points="581.5,-205.99 585,-215.99 588.5,-205.99 581.5,-205.99"/>
</g>
<!-- HbsRenderService -->
<g id="node7" class="node">
<title>HbsRenderService</title>
<ellipse fill="#fdb462" stroke="black" cx="686" cy="-104" rx="83.37" ry="18"/>
<text text-anchor="middle" x="686" y="-99.8" font-family="Times,serif" font-size="14.00">HbsRenderService</text>
</g>
<!-- HbsRenderService&#45;&gt;TemplatePlaygroundModule -->
<g id="edge5" class="edge">
<title>HbsRenderService&#45;&gt;TemplatePlaygroundModule</title>
<path fill="none" stroke="black" d="M638.03,-118.75C638.03,-118.75 638.03,-140.59 638.03,-140.59"/>
<polygon fill="black" stroke="black" points="634.53,-140.59 638.03,-150.59 641.53,-140.59 634.53,-140.59"/>
</g>
<!-- TemplateEditorService -->
<g id="node8" class="node">
<title>TemplateEditorService</title>
<ellipse fill="#fdb462" stroke="black" cx="484" cy="-104" rx="100.7" ry="18"/>
<text text-anchor="middle" x="484" y="-99.8" font-family="Times,serif" font-size="14.00">TemplateEditorService</text>
</g>
<!-- TemplateEditorService&#45;&gt;TemplatePlaygroundModule -->
<g id="edge6" class="edge">
<title>TemplateEditorService&#45;&gt;TemplatePlaygroundModule</title>
<path fill="none" stroke="black" d="M540.56,-119.08C540.56,-119.08 540.56,-140.76 540.56,-140.76"/>
<polygon fill="black" stroke="black" points="537.06,-140.76 540.56,-150.76 544.06,-140.76 537.06,-140.76"/>
</g>
<!-- ZipExportService -->
<g id="node9" class="node">
<title>ZipExportService</title>
<ellipse fill="#fdb462" stroke="black" cx="286" cy="-104" rx="79.87" ry="18"/>
<text text-anchor="middle" x="286" y="-99.8" font-family="Times,serif" font-size="14.00">ZipExportService</text>
</g>
<!-- ZipExportService&#45;&gt;TemplatePlaygroundModule -->
<g id="edge7" class="edge">
<title>ZipExportService&#45;&gt;TemplatePlaygroundModule</title>
<path fill="none" stroke="black" d="M286,-122.11C286,-141.34 286,-169 286,-169 286,-169 486.5,-169 486.5,-169"/>
<polygon fill="black" stroke="black" points="486.5,-172.5 496.5,-169 486.5,-165.5 486.5,-172.5"/>
</g>
</g>
</svg>
